<svg width="62" height="62" viewBox="0 0 62 62" fill="none" xmlns="http://www.w3.org/2000/svg">
<g clip-path="url(#clip0_33_1051)">
<path d="M31 61.5898C47.8447 61.5898 61.5 47.9345 61.5 31.0898C61.5 14.2452 47.8447 0.589844 31 0.589844C14.1553 0.589844 0.5 14.2452 0.5 31.0898C0.5 47.9345 14.1553 61.5898 31 61.5898Z" fill="url(#paint0_linear_33_1051)"/>
<path d="M42.12 24.7354L39.7372 25.1325L41.3258 23.1469L38.5458 23.9411C34.9716 19.9698 29.4117 24.3383 31.0002 27.9125C24.6461 27.9125 21.469 23.1469 21.469 23.1469C21.469 23.1469 19.0862 26.7211 23.0575 29.501L20.6747 28.7067C20.6747 31.0896 22.2633 32.6781 25.0432 33.4724H22.2633C23.8518 36.6495 26.6318 36.6495 26.6318 36.6495C26.6318 36.6495 24.2489 38.6351 19.8804 38.6351C32.9859 44.9893 40.9286 33.0752 39.7372 26.7211L42.12 24.7354Z" fill="#1B1D58"/>
</g>
<defs>
<linearGradient id="paint0_linear_33_1051" x1="37.8439" y1="40.2398" x2="-16.8027" y2="12.6637" gradientUnits="userSpaceOnUse">
<stop stop-color="#FF2D87"/>
<stop offset="1" stop-color="#FF938F"/>
</linearGradient>
<clipPath id="clip0_33_1051">
<rect width="61" height="61" fill="white" transform="translate(0.5 0.589844)"/>
</clipPath>
</defs>
</svg>
