<svg width="458" height="461" viewBox="0 0 458 461" fill="none" xmlns="http://www.w3.org/2000/svg">
<g clip-path="url(#clip0_13_1005)">
<path fill-rule="evenodd" clip-rule="evenodd" d="M388.868 301.241C370.993 349.737 342.842 398.447 291.107 410.482C237.066 423.056 177.911 398.966 134.141 360.5C92.9892 324.337 77.1221 271.941 74.2539 219.922C71.3003 166.312 76.8543 108.749 118.522 77.1116C160.272 45.4139 220.935 50.0049 274.047 68.2264C321.982 84.6718 358.651 122.119 380.814 167.098C402.32 210.741 404.742 258.175 388.868 301.241Z" fill="#1DC9FF"/>
<path d="M237.2 271.2L237.2 157.6L244.6 174.6L214.6 188.8L208.8 158.4L248.6 139L270.6 139L270.6 271.2L237.2 271.2ZM211.6 281L211.6 251L296.8 251L296.8 281L211.6 281Z" fill="#FF2D87"/>
</g>
<defs>
<clipPath id="clip0_13_1005">
<rect width="332.237" height="354.357" fill="white" transform="matrix(-0.423927 0.905697 -0.892736 -0.45058 457.191 159.666)"/>
</clipPath>
</defs>
</svg>
