<svg width="561" height="541" viewBox="0 0 561 541" fill="none" xmlns="http://www.w3.org/2000/svg">
<g clip-path="url(#clip0_13_1007)">
<path fill-rule="evenodd" clip-rule="evenodd" d="M456.564 166.462C489.781 217.878 516.197 279.06 492.21 336.057C467.158 395.596 404.299 433.686 338.468 447.1C276.576 459.715 216.716 437.065 166.067 402.528C113.871 366.933 63.7715 320.552 62.5479 258.945C61.3239 197.217 106.957 143.765 160.204 107.128C208.261 74.0626 268.3 66.5616 325.506 78.0147C381.013 89.1275 427.066 120.802 456.564 166.462Z" fill="#1B1D58"/>
<path d="M237.8 331L231.2 314.6L272 270C274.267 267.467 276.733 264.6 279.4 261.4C282.067 258.2 284.667 254.933 287.2 251.6C289.733 248.133 291.733 244.8 293.2 241.6C294.8 238.4 295.6 235.467 295.6 232.8C295.6 230.133 295 227.8 293.8 225.8C292.6 223.8 290.867 222.267 288.6 221.2C286.333 220 283.467 219.4 280 219.4C276.933 219.4 274 220.2 271.2 221.8C268.4 223.267 265.733 225.6 263.2 228.8C260.8 232 258.533 235.933 256.4 240.6L231.2 227C234 219.267 237.933 212.467 243 206.6C248.2 200.6 254.267 196 261.2 192.8C268.133 189.467 275.533 187.8 283.4 187.8C291.667 187.933 299.133 189.733 305.8 193.2C312.467 196.533 317.733 201.267 321.6 207.4C325.6 213.4 327.6 220.467 327.6 228.6C327.6 231.4 327.267 234.333 326.6 237.4C325.933 240.467 324.933 243.667 323.6 247C322.267 250.2 320.467 253.667 318.2 257.4C316.067 261 313.467 264.8 310.4 268.8C307.333 272.8 303.733 277.067 299.6 281.6L267.8 316.2L263.8 301L333.8 301L333.8 331L237.8 331Z" fill="#FF2D87"/>
</g>
<defs>
<clipPath id="clip0_13_1007">
<rect width="404.311" height="410.338" fill="white" transform="matrix(0.471824 0.881693 -0.895288 0.445489 369.652 0.870605)"/>
</clipPath>
</defs>
</svg>
