<svg width="468" height="491" viewBox="0 0 468 491" fill="none" xmlns="http://www.w3.org/2000/svg">
<g clip-path="url(#clip0_13_1010)">
<path fill-rule="evenodd" clip-rule="evenodd" d="M283.827 444.717C225.095 461.967 158.931 469.924 111.09 430.741C61.1148 389.815 42.4404 318.728 48.2702 251.797C53.7485 188.871 92.462 137.906 139.959 99.148C188.909 59.2068 247.606 24.3382 307.026 40.6575C366.56 57.0105 404.855 115.942 424.865 177.4C442.925 232.868 433.07 292.566 405.846 344.166C379.43 394.233 335.983 429.397 283.827 444.717Z" fill="#FECE2F"/>
<path d="M236.4 315C225.067 315 215.133 312.667 206.6 308C198.2 303.2 190.533 295 183.6 283.4L208 267.6C210.933 272.267 213.933 276 217 278.8C220.2 281.6 223.467 283.667 226.8 285C230.267 286.2 233.867 286.8 237.6 286.8C241.333 286.8 244.733 286 247.8 284.4C251 282.667 253.533 280.267 255.4 277.2C257.4 274.133 258.4 270.667 258.4 266.8C258.4 262.667 257.533 259.2 255.8 256.4C254.2 253.467 251.8 251.267 248.6 249.8C245.533 248.333 241.8 247.6 237.4 247.6C235.4 247.6 233.267 247.867 231 248.4C228.733 248.8 226.333 249.4 223.8 250.2C221.267 251 218.667 252.067 216 253.4L208.6 233.6L242.6 196.6L251.8 201.6L193.4 200.4L193.4 171.8L279.4 171.8L285.6 184.2L239.4 233.8L231.4 224.4C232.467 223.867 234.2 223.4 236.6 223C239.133 222.467 241.533 222.2 243.8 222.2C250.067 222.2 255.933 223.333 261.4 225.6C266.867 227.867 271.733 231 276 235C280.267 239 283.6 243.733 286 249.2C288.4 254.533 289.6 260.267 289.6 266.4C289.6 275.733 287.2 284.067 282.4 291.4C277.733 298.6 271.333 304.333 263.2 308.6C255.2 312.867 246.267 315 236.4 315Z" fill="#FF2D87"/>
</g>
<defs>
<clipPath id="clip0_13_1010">
<rect width="404.311" height="410.338" fill="white" transform="matrix(-0.979373 0.202061 -0.17295 -0.984931 467.28 408.398)"/>
</clipPath>
</defs>
</svg>
