<svg width="30" height="31" viewBox="0 0 30 31" fill="none" xmlns="http://www.w3.org/2000/svg">
<path opacity="0.3" d="M6.25 13.97C5.55964 13.97 5 14.5296 5 15.22C5 15.9104 5.55964 16.47 6.25 16.47H15C15.6904 16.47 16.25 15.9104 16.25 15.22C16.25 14.5296 15.6904 13.97 15 13.97H6.25Z" fill="white"/>
<path d="M14.1161 21.8361C13.628 22.3243 13.628 23.1157 14.1161 23.6039C14.6043 24.092 15.3957 24.092 15.8839 23.6039L23.3839 16.1039C23.8571 15.6307 23.8737 14.8687 23.4214 14.3753L16.5464 6.87532C16.08 6.36642 15.2892 6.33204 14.7803 6.79853C14.2714 7.26502 14.2371 8.05573 14.7036 8.56463L20.7698 15.1824L14.1161 21.8361Z" fill="white"/>
</svg>
