<svg width="40" height="25" viewBox="0 0 40 25" fill="none" xmlns="http://www.w3.org/2000/svg">
<path d="M20 5.82759V20.8276M30 5.00759V17.0776C30 18.0376 29.22 18.9376 28.26 19.0576L27.93 19.0976C25.75 19.3876 22.39 20.4976 20.47 21.5576C20.21 21.7076 19.78 21.7076 19.51 21.5576L19.47 21.5376C17.55 20.4876 14.2 19.3876 12.03 19.0976L11.74 19.0576C10.78 18.9376 10 18.0376 10 17.0776V4.99759C10 3.80759 10.97 2.90759 12.16 3.00759C14.26 3.17759 17.44 4.23759 19.22 5.34759L19.47 5.49759C19.76 5.67759 20.24 5.67759 20.53 5.49759L20.7 5.38759C21.33 4.99759 22.13 4.60759 23 4.25759V8.33759L25 7.00759L27 8.33759V3.11759C27.27 3.06759 27.53 3.03759 27.77 3.01759H27.83C29.02 2.91759 30 3.80759 30 5.00759Z" stroke="white" stroke-width="1.5" stroke-linecap="round" stroke-linejoin="round"/>
<path d="M31.6667 2.8576V8.22335L28.3333 6.85622L25 8.22335V4.02943C27.1833 3.49492 29.6167 3.06319 31.6667 2.8576Z" stroke="white" stroke-width="1.5" stroke-linecap="round" stroke-linejoin="round"/>
</svg>
