<svg width="24" height="22" viewBox="0 0 24 22" fill="none" xmlns="http://www.w3.org/2000/svg">
<path d="M11 1.81491H9C4 1.81491 2 3.62984 2 8.16715V13.6119C2 18.1492 4 19.9642 9 19.9642H15C20 19.9642 22 18.1492 22 13.6119V11.797" stroke="#3C3CD0" stroke-width="1.5" stroke-linecap="round" stroke-linejoin="round"/>
<path d="M16.0399 2.74054L8.15988 9.89134C7.85988 10.1636 7.55988 10.699 7.49988 11.0892L7.06988 13.8207C6.90988 14.8098 7.67988 15.4995 8.76988 15.3633L11.7799 14.9731C12.1999 14.9187 12.7899 14.6464 13.0999 14.3742L20.9799 7.2234C22.3399 5.98925 22.9799 4.55546 20.9799 2.74054C18.9799 0.925612 17.3999 1.50639 16.0399 2.74054Z" stroke="#3C3CD0" stroke-width="1.5" stroke-miterlimit="10" stroke-linecap="round" stroke-linejoin="round"/>
<path d="M14.9102 3.76596C15.2417 4.83447 15.8701 5.80781 16.7351 6.59275C17.6001 7.37769 18.6727 7.94792 19.8502 8.24883" stroke="#3C3CD0" stroke-width="1.5" stroke-miterlimit="10" stroke-linecap="round" stroke-linejoin="round"/>
</svg>
