<svg width="41" height="24" viewBox="0 0 41 24" fill="none" xmlns="http://www.w3.org/2000/svg">
<path d="M10.1948 21.5L10.2502 9.76057C10.2502 9.16531 10.5716 8.59931 11.1034 8.22849L18.8596 2.91013C19.2498 2.64426 19.7292 2.5 20.2225 2.5C20.7159 2.5 21.1952 2.64426 21.5854 2.91013L29.3416 8.21873C29.8846 8.58956 30.1948 9.15555 30.1948 9.76057V21.5" stroke="white" stroke-width="1.5" stroke-miterlimit="10" stroke-linejoin="round"/>
<path d="M10.1948 21.5H30.1948" stroke="white" stroke-width="1.5" stroke-miterlimit="10" stroke-linecap="round" stroke-linejoin="round"/>
<path d="M21.8612 16H18.5278C17.1445 16 16.0278 16.67 16.0278 17.5V21H24.3612V17.5C24.3612 16.67 23.2445 16 21.8612 16ZM16.0278 12.75H12.6945C11.7778 12.75 11.0278 12.3 11.0278 11.75V10.25C11.0278 9.70003 11.7778 9.25003 12.6945 9.25003H16.0278C16.9445 9.25003 17.6945 9.70003 17.6945 10.25V11.75C17.6945 12.3 16.9445 12.75 16.0278 12.75ZM27.6945 12.75H24.3612C23.4445 12.75 22.6945 12.3 22.6945 11.75V10.25C22.6945 9.70003 23.4445 9.25003 24.3612 9.25003H27.6945C28.6112 9.25003 29.3612 9.70003 29.3612 10.25V11.75C29.3612 12.3 28.6112 12.75 27.6945 12.75Z" stroke="white" stroke-width="1.5" stroke-miterlimit="10" stroke-linejoin="round"/>
<path d="M29.858 7.0209L29.8148 4.0209H23.478" stroke="white" stroke-width="1.5" stroke-miterlimit="10" stroke-linecap="round" stroke-linejoin="round"/>
</svg>
