<svg width="24" height="23" viewBox="0 0 24 23" fill="none" xmlns="http://www.w3.org/2000/svg">
<path d="M18.28 8.39692C18.28 9.71274 17.8663 10.9197 17.1543 11.9269C16.6326 12.6609 15.954 13.2838 15.162 13.7557C14.3701 14.2277 13.4822 14.5382 12.5555 14.6675C12.2284 14.7219 11.8916 14.7492 11.5453 14.7492C11.1989 14.7492 10.8622 14.7219 10.5351 14.6675C9.60835 14.5382 8.72051 14.2277 7.92853 13.7557C7.13656 13.2838 6.45794 12.6609 5.93625 11.9269C5.19765 10.8818 4.80578 9.65293 4.81059 8.39692C4.81059 4.88504 7.82196 2.04468 11.5453 2.04468C15.2686 2.04468 18.28 4.88504 18.28 8.39692Z" stroke="black" stroke-width="1.5" stroke-linecap="round" stroke-linejoin="round"/>
<path d="M20.4442 16.9905L18.8567 17.3444C18.5007 17.4261 18.2217 17.6802 18.1447 18.0159L17.808 19.3499C17.7667 19.5136 17.6779 19.6633 17.5516 19.7822C17.4253 19.9011 17.2664 19.9845 17.0927 20.0231C16.919 20.0617 16.7373 20.054 16.568 20.0008C16.3987 19.9476 16.2484 19.8511 16.134 19.722L11.5447 14.7491L6.95553 19.731C6.84106 19.8602 6.69076 19.9567 6.52145 20.0099C6.35214 20.0631 6.17049 20.0708 5.99679 20.0322C5.82309 19.9936 5.6642 19.9102 5.53788 19.7913C5.41156 19.6724 5.32278 19.5227 5.28147 19.359L4.94474 18.025C4.90381 17.8618 4.81554 17.7125 4.6898 17.5939C4.56407 17.4753 4.40583 17.3921 4.23279 17.3535L2.64532 16.9996C2.479 16.962 2.32626 16.8833 2.20275 16.7718C2.07924 16.6602 1.98939 16.5196 1.9424 16.3645C1.89542 16.2094 1.89298 16.0453 1.93535 15.889C1.97772 15.7327 2.06336 15.5898 2.18352 15.475L5.9357 11.9359C6.4574 12.6698 7.13601 13.2928 7.92799 13.7647C8.71996 14.2367 9.60781 14.5472 10.5345 14.6765C10.8616 14.7309 11.1984 14.7581 11.5447 14.7581C11.8911 14.7581 12.2278 14.7309 12.5549 14.6765C14.4695 14.4133 16.1147 13.3879 17.1538 11.9359L20.906 15.475C21.4351 15.9651 21.1754 16.8272 20.4442 16.9905ZM12.1028 5.65629L12.6704 6.72709C12.7474 6.87229 12.9494 7.01748 13.1322 7.0447L14.1617 7.20805C14.8159 7.30787 14.9698 7.7616 14.4984 8.20626L13.6998 8.95945C13.5651 9.08649 13.4882 9.33151 13.5363 9.513L13.7672 10.4477C13.95 11.1827 13.5363 11.4731 12.8436 11.0829L11.8815 10.5475C11.7838 10.4983 11.6747 10.4726 11.564 10.4726C11.4532 10.4726 11.3442 10.4983 11.2465 10.5475L10.2844 11.0829C9.59168 11.464 9.17798 11.1827 9.36077 10.4477L9.59168 9.513C9.63016 9.34058 9.56282 9.08649 9.42812 8.95945L8.62958 8.20626C8.15815 7.7616 8.31209 7.31694 8.96631 7.20805L9.99576 7.0447C10.1689 7.01748 10.371 6.87229 10.4479 6.72709L11.0156 5.65629C11.2946 5.07551 11.7949 5.07551 12.1028 5.65629Z" stroke="black" stroke-width="1.5" stroke-linecap="round" stroke-linejoin="round"/>
</svg>
