<svg width="24" height="22" viewBox="0 0 24 22" fill="none" xmlns="http://www.w3.org/2000/svg">
<path d="M8.24498 13.9792L14.5371 8.04441M8.63944 9.53265C8.95329 9.53265 9.25429 9.41505 9.47621 9.20573C9.69814 8.99641 9.82282 8.7125 9.82282 8.41647C9.82282 8.12044 9.69814 7.83654 9.47621 7.62721C9.25429 7.41789 8.95329 7.30029 8.63944 7.30029C8.32558 7.30029 8.02459 7.41789 7.80266 7.62721C7.58073 7.83654 7.45605 8.12044 7.45605 8.41647C7.45605 8.7125 7.58073 8.99641 7.80266 9.20573C8.02459 9.41505 8.32558 9.53265 8.63944 9.53265ZM14.9316 14.7233C15.2454 14.7233 15.5464 14.6057 15.7683 14.3964C15.9903 14.1871 16.1149 13.9032 16.1149 13.6072C16.1149 13.3111 15.9903 13.0272 15.7683 12.8179C15.5464 12.6086 15.2454 12.491 14.9316 12.491C14.6177 12.491 14.3167 12.6086 14.0948 12.8179C13.8729 13.0272 13.7482 13.3111 13.7482 13.6072C13.7482 13.9032 13.8729 14.1871 14.0948 14.3964C14.3167 14.6057 14.6177 14.7233 14.9316 14.7233Z" stroke="black" stroke-width="1.5" stroke-linecap="round" stroke-linejoin="round"/>
<path d="M11.5448 20.0865C16.8585 20.0865 21.1658 16.0238 21.1658 11.0119C21.1658 5.99997 16.8585 1.93726 11.5448 1.93726C6.23115 1.93726 1.92383 5.99997 1.92383 11.0119C1.92383 16.0238 6.23115 20.0865 11.5448 20.0865Z" stroke="black" stroke-width="1.5" stroke-linecap="round" stroke-linejoin="round"/>
</svg>
