<svg width="26" height="26" viewBox="0 0 26 26" fill="none" xmlns="http://www.w3.org/2000/svg">
<mask id="mask0_33_1066" style="mask-type:luminance" maskUnits="userSpaceOnUse" x="0" y="0" width="26" height="26">
<path d="M25.8332 0.381348H0.416504V25.798H25.8332V0.381348Z" fill="white"/>
</mask>
<g mask="url(#mask0_33_1066)">
<path d="M18.4201 2.49951H7.82987C4.90537 2.49951 2.53467 4.87021 2.53467 7.79461V18.3849C2.53467 21.3093 4.90537 23.68 7.82987 23.68H18.4201C21.3446 23.68 23.7153 21.3093 23.7153 18.3849V7.79461C23.7153 4.87021 21.3446 2.49951 18.4201 2.49951Z" stroke="#1B1D58" stroke-width="2" stroke-linecap="round" stroke-linejoin="round"/>
<path d="M17.361 12.4224C17.4917 13.3038 17.3412 14.2038 16.9308 14.9947C16.5204 15.7856 15.8711 16.427 15.0752 16.8276C14.2793 17.2282 13.3774 17.3677 12.4977 17.2261C11.618 17.0845 10.8054 16.6691 10.1753 16.0391C9.54529 15.409 9.12999 14.5964 8.98839 13.7167C8.84679 12.837 8.98629 11.9352 9.38689 11.1393C9.78749 10.3434 10.4288 9.69405 11.2197 9.28365C12.0106 8.87325 12.9107 8.72275 13.7921 8.85345C14.6911 8.98675 15.5234 9.40565 16.1661 10.0483C16.8088 10.691 17.2277 11.5234 17.361 12.4224Z" stroke="#1B1D58" stroke-width="2" stroke-linecap="round" stroke-linejoin="round"/>
</g>
</svg>
