<svg width="24" height="22" viewBox="0 0 24 22" fill="none" xmlns="http://www.w3.org/2000/svg">
<path d="M9.66885 2.47184L3.87701 6.03817C2.02016 7.18157 2.02016 9.74062 3.87701 10.884L9.66885 14.4503C10.7079 15.0946 12.4205 15.0946 13.4595 14.4503L19.2225 10.884C21.0697 9.74062 21.0697 7.19065 19.2225 6.04724L13.4595 2.48092C12.4205 1.82754 10.7079 1.82754 9.66885 2.47184Z" stroke="black" stroke-width="1.5" stroke-linecap="round" stroke-linejoin="round"/>
<path d="M5.41685 12.0457L5.40723 16.3017C5.40723 17.4542 6.35008 18.6883 7.5046 19.0513L10.5737 20.0132C11.1029 20.1766 11.9784 20.1766 12.5171 20.0132L15.5862 19.0513C16.7408 18.6883 17.6836 17.4542 17.6836 16.3017V12.0911M20.5892 13.788V8.34326" stroke="black" stroke-width="1.5" stroke-linecap="round" stroke-linejoin="round"/>
</svg>
