<svg width="24" height="22" viewBox="0 0 24 22" fill="none" xmlns="http://www.w3.org/2000/svg">
<path d="M21 5.42661C17.67 5.12715 14.32 4.97288 10.98 4.97288C9 4.97288 7.02 5.06363 5.04 5.24512L3 5.42661M8.5 4.51007L8.72 3.3213C8.88 2.45921 9 1.81491 10.69 1.81491H13.31C15 1.81491 15.13 2.49551 15.28 3.33037L15.5 4.51007M18.85 8.29419L18.2 17.4323C18.09 18.8571 18 19.9642 15.21 19.9642H8.79C6 19.9642 5.91 18.8571 5.8 17.4323L5.15 8.29419M10.33 14.9731H13.66M9.5 11.3433H14.5" stroke="#FA114F" stroke-width="1.5" stroke-linecap="round" stroke-linejoin="round"/>
</svg>
