<svg width="41" height="29" viewBox="0 0 41 29" fill="none" xmlns="http://www.w3.org/2000/svg">
<path d="M23.915 2.28009H17.915C12.915 2.28009 10.915 4.28009 10.915 9.28009V15.2801C10.915 19.0601 12.055 21.1301 14.775 21.9001C14.995 19.3001 17.665 17.2501 20.915 17.2501C24.165 17.2501 26.835 19.3001 27.055 21.9001C29.775 21.1301 30.915 19.0601 30.915 15.2801V9.28009C30.915 4.28009 28.915 2.28009 23.915 2.28009ZM20.915 14.4501C18.935 14.4501 17.335 12.8401 17.335 10.8601C17.335 8.88009 18.935 7.28009 20.915 7.28009C22.895 7.28009 24.495 8.88009 24.495 10.8601C24.495 12.8401 22.895 14.4501 20.915 14.4501Z" stroke="white" stroke-width="1.5" stroke-linecap="round" stroke-linejoin="round"/>
<path d="M27.0549 26.5501C26.1749 26.8101 25.1349 26.9301 23.9149 26.9301H17.9149C16.6949 26.9301 15.6549 26.8101 14.7749 26.5501C14.9949 23.9501 17.6649 21.9001 20.9149 21.9001C24.1649 21.9001 26.8349 23.9501 27.0549 26.5501Z" stroke="white" stroke-width="1.5" stroke-linecap="round" stroke-linejoin="round"/>
<path d="M26.8816 12.91C26.8816 15.2736 24.2149 17.1955 20.9149 17.1955C17.6149 17.1955 14.9482 15.2736 14.9482 12.91C14.9482 10.5464 17.6149 8.63635 20.9149 8.63635C24.2149 8.63635 26.8816 10.5464 26.8816 12.91Z" stroke="white" stroke-width="1.5" stroke-linecap="round" stroke-linejoin="round"/>
</svg>
